<svg width="818" height="573" viewBox="0 0 818 573" fill="none" xmlns="http://www.w3.org/2000/svg">
<rect width="818" height="573" fill="white"/>
<path d="M44 312.176V45.1698L604 90.8435V363.807L44 312.176Z" fill="black" fill-opacity="0.15" stroke="black" stroke-width="4"/>
<path d="M133 394.176V127.17L693 172.844V445.807L133 394.176Z" fill="#4643DA" fill-opacity="0.15" stroke="#4643DA" stroke-width="4"/>
<path d="M208 477.176V210.17L768 255.844V528.807L208 477.176Z" fill="#BE226D" fill-opacity="0.15" stroke="#BE226D" stroke-width="4"/>
<path d="M81.3491 97.7119V103H79.5679V89.4922H84.5498C86.028 89.4922 87.1846 89.8695 88.0195 90.624C88.8607 91.3786 89.2812 92.3774 89.2812 93.6206C89.2812 94.9318 88.87 95.943 88.0474 96.6543C87.231 97.3594 86.0589 97.7119 84.5312 97.7119H81.3491ZM81.3491 96.2554H84.5498C85.5023 96.2554 86.2321 96.0327 86.7393 95.5874C87.2464 95.1359 87.5 94.4865 87.5 93.6392C87.5 92.8351 87.2464 92.1919 86.7393 91.7095C86.2321 91.2271 85.5363 90.9766 84.6519 90.958H81.3491V96.2554ZM97.3711 103C97.2721 102.802 97.1917 102.45 97.1299 101.942C96.332 102.771 95.3796 103.186 94.2725 103.186C93.2829 103.186 92.4696 102.907 91.8325 102.351C91.2017 101.788 90.8862 101.076 90.8862 100.217C90.8862 99.1715 91.2821 98.3613 92.0737 97.7861C92.8716 97.2048 93.991 96.9141 95.4321 96.9141H97.1021V96.1255C97.1021 95.5256 96.9227 95.0493 96.564 94.6968C96.2052 94.3381 95.6764 94.1587 94.9775 94.1587C94.3652 94.1587 93.8519 94.3133 93.4375 94.6226C93.0231 94.9318 92.8159 95.306 92.8159 95.7451H91.0903C91.0903 95.2441 91.2666 94.7617 91.6191 94.2979C91.9779 93.8278 92.4603 93.4567 93.0664 93.1846C93.6787 92.9124 94.3498 92.7764 95.0796 92.7764C96.2362 92.7764 97.1423 93.0671 97.7979 93.6484C98.4535 94.2236 98.7936 95.0184 98.8184 96.0327V100.653C98.8184 101.574 98.9359 102.307 99.1709 102.852V103H97.3711ZM94.5229 101.692C95.061 101.692 95.5713 101.553 96.0537 101.274C96.5361 100.996 96.8856 100.634 97.1021 100.189V98.1294H95.7568C93.654 98.1294 92.6025 98.7448 92.6025 99.9756C92.6025 100.514 92.7819 100.934 93.1406 101.237C93.4993 101.54 93.9601 101.692 94.5229 101.692ZM106.361 94.502C106.101 94.4587 105.82 94.437 105.517 94.437C104.391 94.437 103.627 94.9163 103.225 95.875V103H101.509V92.9619H103.179L103.207 94.1216C103.769 93.2248 104.567 92.7764 105.6 92.7764C105.934 92.7764 106.188 92.8197 106.361 92.9062V94.502ZM111.927 103.186C110.567 103.186 109.459 102.74 108.606 101.85C107.752 100.953 107.326 99.756 107.326 98.2593V97.9438C107.326 96.9481 107.514 96.0605 107.892 95.2812C108.275 94.4958 108.807 93.8835 109.487 93.4443C110.174 92.999 110.916 92.7764 111.714 92.7764C113.019 92.7764 114.033 93.2062 114.757 94.0659C115.48 94.9256 115.842 96.1564 115.842 97.7583V98.4727H109.042C109.067 99.4622 109.354 100.263 109.905 100.875C110.461 101.482 111.167 101.785 112.02 101.785C112.626 101.785 113.139 101.661 113.56 101.414C113.981 101.166 114.349 100.838 114.664 100.43L115.712 101.247C114.871 102.539 113.61 103.186 111.927 103.186ZM111.714 94.1865C111.021 94.1865 110.44 94.4401 109.97 94.9473C109.5 95.4482 109.209 96.1533 109.098 97.0625H114.126V96.9326C114.076 96.0605 113.841 95.3864 113.421 94.9102C113 94.4277 112.431 94.1865 111.714 94.1865ZM119.46 92.9619L119.516 94.2236C120.283 93.2588 121.285 92.7764 122.522 92.7764C124.643 92.7764 125.713 93.9731 125.732 96.3667V103H124.016V96.3574C124.009 95.6338 123.842 95.0988 123.515 94.7524C123.193 94.4061 122.689 94.2329 122.002 94.2329C121.446 94.2329 120.957 94.3813 120.537 94.6782C120.116 94.9751 119.788 95.3647 119.553 95.8472V103H117.837V92.9619H119.46ZM130.649 90.5312V92.9619H132.523V94.2886H130.649V100.514C130.649 100.916 130.732 101.219 130.899 101.423C131.066 101.621 131.351 101.72 131.753 101.72C131.951 101.72 132.223 101.683 132.569 101.608V103C132.118 103.124 131.679 103.186 131.252 103.186C130.485 103.186 129.907 102.954 129.517 102.49C129.127 102.026 128.933 101.367 128.933 100.514V94.2886H127.105V92.9619H128.933V90.5312H130.649ZM139.184 97.5171C139.184 96.1193 139.37 94.7772 139.741 93.4907C140.118 92.2043 140.678 91.0353 141.42 89.9839C142.162 88.9325 142.932 88.1903 143.73 87.7573L144.083 88.8892C143.18 89.5819 142.437 90.6395 141.856 92.062C141.281 93.4845 140.965 95.0771 140.91 96.8398L140.9 97.6284C140.9 100.016 141.336 102.088 142.208 103.844C142.734 104.896 143.359 105.718 144.083 106.312L143.73 107.36C142.907 106.903 142.122 106.136 141.374 105.06C139.914 102.957 139.184 100.443 139.184 97.5171ZM145.326 97.8975C145.326 96.3574 145.691 95.1204 146.42 94.1865C147.15 93.2464 148.106 92.7764 149.287 92.7764C150.462 92.7764 151.393 93.1784 152.08 93.9824V88.75H153.796V103H152.219L152.135 101.924C151.449 102.765 150.493 103.186 149.269 103.186C148.106 103.186 147.156 102.709 146.42 101.757C145.691 100.804 145.326 99.5612 145.326 98.0273V97.8975ZM147.042 98.0923C147.042 99.2303 147.277 100.121 147.747 100.764C148.217 101.407 148.867 101.729 149.695 101.729C150.784 101.729 151.579 101.24 152.08 100.263V95.6523C151.566 94.7061 150.778 94.2329 149.714 94.2329C148.873 94.2329 148.217 94.5576 147.747 95.207C147.277 95.8564 147.042 96.8182 147.042 98.0923ZM158.333 103H156.616V92.9619H158.333V103ZM156.477 90.2993C156.477 90.021 156.561 89.786 156.728 89.5942C156.901 89.4025 157.154 89.3066 157.488 89.3066C157.822 89.3066 158.076 89.4025 158.249 89.5942C158.422 89.786 158.509 90.021 158.509 90.2993C158.509 90.5776 158.422 90.8096 158.249 90.9951C158.076 91.1807 157.822 91.2734 157.488 91.2734C157.154 91.2734 156.901 91.1807 156.728 90.9951C156.561 90.8096 156.477 90.5776 156.477 90.2993ZM166.933 100.337C166.933 99.8735 166.756 99.5148 166.404 99.2612C166.057 99.0015 165.448 98.7788 164.576 98.5933C163.71 98.4077 163.021 98.1851 162.507 97.9253C162 97.6655 161.623 97.3563 161.375 96.9976C161.134 96.6388 161.014 96.2121 161.014 95.7173C161.014 94.8947 161.36 94.1989 162.053 93.6299C162.752 93.0609 163.642 92.7764 164.725 92.7764C165.863 92.7764 166.784 93.0701 167.489 93.6577C168.201 94.2453 168.556 94.9967 168.556 95.9121H166.831C166.831 95.4421 166.63 95.0369 166.228 94.6968C165.832 94.3566 165.331 94.1865 164.725 94.1865C164.1 94.1865 163.611 94.3226 163.259 94.5947C162.906 94.8669 162.73 95.2225 162.73 95.6616C162.73 96.076 162.894 96.3883 163.222 96.5986C163.549 96.8089 164.14 97.0099 164.994 97.2017C165.853 97.3934 166.549 97.6222 167.081 97.8882C167.613 98.1541 168.006 98.4757 168.259 98.853C168.519 99.2241 168.649 99.6787 168.649 100.217C168.649 101.114 168.29 101.834 167.573 102.378C166.855 102.917 165.924 103.186 164.78 103.186C163.976 103.186 163.265 103.043 162.646 102.759C162.028 102.474 161.542 102.078 161.19 101.571C160.844 101.058 160.67 100.504 160.67 99.9106H162.387C162.418 100.486 162.646 100.944 163.073 101.284C163.506 101.618 164.075 101.785 164.78 101.785C165.43 101.785 165.949 101.655 166.339 101.395C166.735 101.129 166.933 100.777 166.933 100.337ZM179.364 98.0923C179.364 99.62 179.015 100.851 178.316 101.785C177.617 102.719 176.671 103.186 175.477 103.186C174.259 103.186 173.3 102.799 172.601 102.026V106.859H170.885V92.9619H172.453L172.536 94.0752C173.235 93.2093 174.206 92.7764 175.449 92.7764C176.655 92.7764 177.608 93.231 178.307 94.1401C179.012 95.0493 179.364 96.3141 179.364 97.9346V98.0923ZM177.648 97.8975C177.648 96.7656 177.407 95.8719 176.924 95.2163C176.442 94.5607 175.78 94.2329 174.939 94.2329C173.9 94.2329 173.121 94.6937 172.601 95.6152V100.412C173.114 101.327 173.9 101.785 174.958 101.785C175.78 101.785 176.433 101.46 176.915 100.811C177.404 100.155 177.648 99.1839 177.648 97.8975ZM183.418 103H181.702V88.75H183.418V103ZM192.371 103C192.272 102.802 192.192 102.45 192.13 101.942C191.332 102.771 190.38 103.186 189.272 103.186C188.283 103.186 187.47 102.907 186.833 102.351C186.202 101.788 185.886 101.076 185.886 100.217C185.886 99.1715 186.282 98.3613 187.074 97.7861C187.872 97.2048 188.991 96.9141 190.432 96.9141H192.102V96.1255C192.102 95.5256 191.923 95.0493 191.564 94.6968C191.205 94.3381 190.676 94.1587 189.978 94.1587C189.365 94.1587 188.852 94.3133 188.438 94.6226C188.023 94.9318 187.816 95.306 187.816 95.7451H186.09C186.09 95.2441 186.267 94.7617 186.619 94.2979C186.978 93.8278 187.46 93.4567 188.066 93.1846C188.679 92.9124 189.35 92.7764 190.08 92.7764C191.236 92.7764 192.142 93.0671 192.798 93.6484C193.453 94.2236 193.794 95.0184 193.818 96.0327V100.653C193.818 101.574 193.936 102.307 194.171 102.852V103H192.371ZM189.523 101.692C190.061 101.692 190.571 101.553 191.054 101.274C191.536 100.996 191.886 100.634 192.102 100.189V98.1294H190.757C188.654 98.1294 187.603 98.7448 187.603 99.9756C187.603 100.514 187.782 100.934 188.141 101.237C188.499 101.54 188.96 101.692 189.523 101.692ZM199.645 100.486L201.982 92.9619H203.819L199.784 104.549C199.159 106.219 198.166 107.054 196.806 107.054L196.481 107.026L195.841 106.906V105.514L196.305 105.551C196.886 105.551 197.338 105.434 197.659 105.199C197.987 104.964 198.256 104.534 198.466 103.909L198.847 102.889L195.266 92.9619H197.14L199.645 100.486ZM205.304 102.1C205.304 101.803 205.39 101.556 205.563 101.358C205.743 101.16 206.009 101.061 206.361 101.061C206.714 101.061 206.98 101.16 207.159 101.358C207.345 101.556 207.438 101.803 207.438 102.1C207.438 102.385 207.345 102.623 207.159 102.814C206.98 103.006 206.714 103.102 206.361 103.102C206.009 103.102 205.743 103.006 205.563 102.814C205.39 102.623 205.304 102.385 205.304 102.1ZM205.313 93.9082C205.313 93.6113 205.4 93.3639 205.573 93.166C205.752 92.9681 206.018 92.8691 206.371 92.8691C206.723 92.8691 206.989 92.9681 207.168 93.166C207.354 93.3639 207.447 93.6113 207.447 93.9082C207.447 94.1927 207.354 94.4308 207.168 94.6226C206.989 94.8143 206.723 94.9102 206.371 94.9102C206.018 94.9102 205.752 94.8143 205.573 94.6226C205.4 94.4308 205.313 94.1927 205.313 93.9082ZM214.266 97.8975C214.266 96.3327 214.627 95.0895 215.351 94.168C216.075 93.2402 217.033 92.7764 218.227 92.7764C219.452 92.7764 220.407 93.2093 221.094 94.0752L221.177 92.9619H222.745V102.759C222.745 104.058 222.359 105.081 221.585 105.83C220.819 106.578 219.786 106.952 218.487 106.952C217.763 106.952 217.055 106.798 216.362 106.488C215.67 106.179 215.141 105.755 214.776 105.217L215.667 104.188C216.403 105.097 217.302 105.551 218.366 105.551C219.201 105.551 219.851 105.316 220.314 104.846C220.785 104.376 221.02 103.714 221.02 102.861V101.998C220.333 102.79 219.396 103.186 218.208 103.186C217.033 103.186 216.081 102.712 215.351 101.766C214.627 100.82 214.266 99.5303 214.266 97.8975ZM215.991 98.0923C215.991 99.2241 216.223 100.115 216.687 100.764C217.151 101.407 217.8 101.729 218.635 101.729C219.718 101.729 220.512 101.237 221.02 100.254V95.6709C220.494 94.7122 219.705 94.2329 218.654 94.2329C217.819 94.2329 217.166 94.5576 216.696 95.207C216.226 95.8564 215.991 96.8182 215.991 98.0923ZM230.195 94.502C229.935 94.4587 229.654 94.437 229.351 94.437C228.225 94.437 227.461 94.9163 227.059 95.875V103H225.343V92.9619H227.013L227.041 94.1216C227.603 93.2248 228.401 92.7764 229.434 92.7764C229.768 92.7764 230.022 92.8197 230.195 92.9062V94.502ZM233.646 103H231.93V92.9619H233.646V103ZM231.791 90.2993C231.791 90.021 231.874 89.786 232.041 89.5942C232.214 89.4025 232.468 89.3066 232.802 89.3066C233.136 89.3066 233.389 89.4025 233.562 89.5942C233.736 89.786 233.822 90.021 233.822 90.2993C233.822 90.5776 233.736 90.8096 233.562 90.9951C233.389 91.1807 233.136 91.2734 232.802 91.2734C232.468 91.2734 232.214 91.1807 232.041 90.9951C231.874 90.8096 231.791 90.5776 231.791 90.2993ZM235.984 97.8975C235.984 96.3574 236.349 95.1204 237.079 94.1865C237.808 93.2464 238.764 92.7764 239.945 92.7764C241.12 92.7764 242.051 93.1784 242.738 93.9824V88.75H244.454V103H242.877L242.793 101.924C242.107 102.765 241.151 103.186 239.927 103.186C238.764 103.186 237.815 102.709 237.079 101.757C236.349 100.804 235.984 99.5612 235.984 98.0273V97.8975ZM237.7 98.0923C237.7 99.2303 237.935 100.121 238.405 100.764C238.875 101.407 239.525 101.729 240.354 101.729C241.442 101.729 242.237 101.24 242.738 100.263V95.6523C242.224 94.7061 241.436 94.2329 240.372 94.2329C239.531 94.2329 238.875 94.5576 238.405 95.207C237.935 95.8564 237.7 96.8182 237.7 98.0923ZM246.857 93.9082C246.857 93.6113 246.944 93.3639 247.117 93.166C247.296 92.9681 247.562 92.8691 247.915 92.8691C248.267 92.8691 248.533 92.9681 248.712 93.166C248.898 93.3639 248.991 93.6113 248.991 93.9082C248.991 94.1927 248.898 94.4308 248.712 94.6226C248.533 94.8143 248.267 94.9102 247.915 94.9102C247.562 94.9102 247.296 94.8143 247.117 94.6226C246.944 94.4308 246.857 94.1927 246.857 93.9082ZM247.182 105.69L246.208 105.022C246.789 104.212 247.092 103.377 247.117 102.518V100.968H248.796V102.313C248.796 102.938 248.641 103.563 248.332 104.188C248.029 104.812 247.646 105.313 247.182 105.69ZM255.114 97.6099C255.114 98.9891 254.931 100.313 254.566 101.581C254.208 102.842 253.654 104.008 252.906 105.078C252.164 106.148 251.384 106.909 250.568 107.36L250.206 106.312C251.159 105.582 251.922 104.45 252.498 102.917C253.079 101.376 253.376 99.6694 253.388 97.7954V97.4985C253.388 96.1997 253.252 94.9937 252.98 93.8804C252.708 92.7609 252.327 91.759 251.839 90.8745C251.356 89.9901 250.812 89.3005 250.206 88.8057L250.568 87.7573C251.384 88.2088 252.16 88.9634 252.896 90.021C253.639 91.0786 254.192 92.2445 254.557 93.5186C254.928 94.7926 255.114 96.1564 255.114 97.6099Z" fill="black"/>
<path d="M164.449 180.025L170.257 182.373V184.191L162.668 180.675V179.32L170.257 175.813V177.632L164.449 180.025ZM175.294 173.531V175.962H177.168V177.289H175.294V183.514C175.294 183.916 175.378 184.219 175.545 184.423C175.712 184.621 175.996 184.72 176.398 184.72C176.596 184.72 176.868 184.683 177.215 184.608V186C176.763 186.124 176.324 186.186 175.897 186.186C175.131 186.186 174.552 185.954 174.163 185.49C173.773 185.026 173.578 184.367 173.578 183.514V177.289H171.75V175.962H173.578V173.531H175.294ZM183.347 186.186C181.986 186.186 180.879 185.74 180.026 184.85C179.172 183.953 178.746 182.756 178.746 181.259V180.944C178.746 179.948 178.934 179.061 179.312 178.281C179.695 177.496 180.227 176.883 180.907 176.444C181.594 175.999 182.336 175.776 183.134 175.776C184.439 175.776 185.453 176.206 186.177 177.066C186.9 177.926 187.262 179.156 187.262 180.758V181.473H180.462C180.487 182.462 180.774 183.263 181.325 183.875C181.881 184.482 182.586 184.785 183.44 184.785C184.046 184.785 184.559 184.661 184.98 184.414C185.401 184.166 185.769 183.838 186.084 183.43L187.132 184.247C186.291 185.539 185.029 186.186 183.347 186.186ZM183.134 177.187C182.441 177.187 181.86 177.44 181.39 177.947C180.92 178.448 180.629 179.153 180.518 180.062H185.546V179.933C185.496 179.061 185.261 178.386 184.841 177.91C184.42 177.428 183.851 177.187 183.134 177.187ZM192.625 179.626L194.851 175.962H196.855L193.571 180.925L196.957 186H194.972L192.652 182.243L190.333 186H188.338L191.725 180.925L188.44 175.962H190.426L192.625 179.626ZM201.011 173.531V175.962H202.885V177.289H201.011V183.514C201.011 183.916 201.095 184.219 201.262 184.423C201.429 184.621 201.713 184.72 202.115 184.72C202.313 184.72 202.585 184.683 202.932 184.608V186C202.48 186.124 202.041 186.186 201.614 186.186C200.847 186.186 200.269 185.954 199.879 185.49C199.49 185.026 199.295 184.367 199.295 183.514V177.289H197.467V175.962H199.295V173.531H201.011ZM211.096 186C210.997 185.802 210.916 185.45 210.854 184.942C210.057 185.771 209.104 186.186 207.997 186.186C207.007 186.186 206.194 185.907 205.557 185.351C204.926 184.788 204.611 184.076 204.611 183.217C204.611 182.172 205.007 181.361 205.798 180.786C206.596 180.205 207.716 179.914 209.157 179.914H210.827V179.125C210.827 178.526 210.647 178.049 210.289 177.697C209.93 177.338 209.401 177.159 208.702 177.159C208.09 177.159 207.576 177.313 207.162 177.623C206.748 177.932 206.541 178.306 206.541 178.745H204.815C204.815 178.244 204.991 177.762 205.344 177.298C205.702 176.828 206.185 176.457 206.791 176.185C207.403 175.912 208.074 175.776 208.804 175.776C209.961 175.776 210.867 176.067 211.522 176.648C212.178 177.224 212.518 178.018 212.543 179.033V183.653C212.543 184.574 212.66 185.307 212.896 185.852V186H211.096ZM208.248 184.692C208.786 184.692 209.296 184.553 209.778 184.274C210.261 183.996 210.61 183.634 210.827 183.189V181.129H209.481C207.379 181.129 206.327 181.745 206.327 182.976C206.327 183.514 206.507 183.934 206.865 184.237C207.224 184.54 207.685 184.692 208.248 184.692ZM220.085 177.502C219.826 177.459 219.544 177.437 219.241 177.437C218.116 177.437 217.352 177.916 216.95 178.875V186H215.233V175.962H216.903L216.931 177.122C217.494 176.225 218.292 175.776 219.325 175.776C219.659 175.776 219.912 175.82 220.085 175.906V177.502ZM225.652 186.186C224.291 186.186 223.184 185.74 222.331 184.85C221.477 183.953 221.05 182.756 221.05 181.259V180.944C221.05 179.948 221.239 179.061 221.616 178.281C222 177.496 222.532 176.883 223.212 176.444C223.898 175.999 224.641 175.776 225.438 175.776C226.743 175.776 227.758 176.206 228.481 177.066C229.205 177.926 229.567 179.156 229.567 180.758V181.473H222.767C222.791 182.462 223.079 183.263 223.629 183.875C224.186 184.482 224.891 184.785 225.745 184.785C226.351 184.785 226.864 184.661 227.285 184.414C227.705 184.166 228.073 183.838 228.389 183.43L229.437 184.247C228.596 185.539 227.334 186.186 225.652 186.186ZM225.438 177.187C224.746 177.187 224.164 177.44 223.694 177.947C223.224 178.448 222.934 179.153 222.822 180.062H227.851V179.933C227.801 179.061 227.566 178.386 227.146 177.91C226.725 177.428 226.156 177.187 225.438 177.187ZM237.759 186C237.66 185.802 237.579 185.45 237.518 184.942C236.72 185.771 235.767 186.186 234.66 186.186C233.671 186.186 232.857 185.907 232.22 185.351C231.589 184.788 231.274 184.076 231.274 183.217C231.274 182.172 231.67 181.361 232.461 180.786C233.259 180.205 234.379 179.914 235.82 179.914H237.49V179.125C237.49 178.526 237.31 178.049 236.952 177.697C236.593 177.338 236.064 177.159 235.365 177.159C234.753 177.159 234.24 177.313 233.825 177.623C233.411 177.932 233.204 178.306 233.204 178.745H231.478C231.478 178.244 231.654 177.762 232.007 177.298C232.366 176.828 232.848 176.457 233.454 176.185C234.066 175.912 234.737 175.776 235.467 175.776C236.624 175.776 237.53 176.067 238.186 176.648C238.841 177.224 239.181 178.018 239.206 179.033V183.653C239.206 184.574 239.324 185.307 239.559 185.852V186H237.759ZM234.911 184.692C235.449 184.692 235.959 184.553 236.441 184.274C236.924 183.996 237.273 183.634 237.49 183.189V181.129H236.145C234.042 181.129 232.99 181.745 232.99 182.976C232.99 183.514 233.17 183.934 233.528 184.237C233.887 184.54 234.348 184.692 234.911 184.692ZM247.973 179.97L241.841 177.567V175.804L249.764 179.311V180.666L241.841 184.182V182.4L247.973 179.97ZM256.471 180.517C256.471 179.119 256.657 177.777 257.028 176.491C257.405 175.204 257.965 174.035 258.707 172.984C259.449 171.932 260.219 171.19 261.017 170.757L261.37 171.889C260.467 172.582 259.724 173.639 259.143 175.062C258.568 176.485 258.252 178.077 258.197 179.84L258.188 180.628C258.188 183.016 258.624 185.088 259.496 186.844C260.021 187.896 260.646 188.718 261.37 189.312L261.017 190.36C260.194 189.903 259.409 189.136 258.661 188.06C257.201 185.957 256.471 183.443 256.471 180.517ZM262.622 180.897C262.622 179.333 262.984 178.09 263.708 177.168C264.431 176.24 265.39 175.776 266.583 175.776C267.808 175.776 268.764 176.209 269.45 177.075L269.534 175.962H271.102V185.759C271.102 187.058 270.715 188.081 269.942 188.83C269.175 189.578 268.142 189.952 266.843 189.952C266.12 189.952 265.411 189.798 264.719 189.488C264.026 189.179 263.497 188.755 263.132 188.217L264.023 187.188C264.759 188.097 265.659 188.551 266.723 188.551C267.558 188.551 268.207 188.316 268.671 187.846C269.141 187.376 269.376 186.714 269.376 185.861V184.998C268.689 185.79 267.752 186.186 266.565 186.186C265.39 186.186 264.437 185.712 263.708 184.766C262.984 183.82 262.622 182.53 262.622 180.897ZM264.348 181.092C264.348 182.224 264.58 183.115 265.043 183.764C265.507 184.407 266.157 184.729 266.992 184.729C268.074 184.729 268.869 184.237 269.376 183.254V178.671C268.85 177.712 268.062 177.233 267.01 177.233C266.175 177.233 265.523 177.558 265.053 178.207C264.583 178.856 264.348 179.818 264.348 181.092ZM278.551 177.502C278.292 177.459 278.01 177.437 277.707 177.437C276.581 177.437 275.818 177.916 275.416 178.875V186H273.699V175.962H275.369L275.397 177.122C275.96 176.225 276.758 175.776 277.791 175.776C278.125 175.776 278.378 175.82 278.551 175.906V177.502ZM282.002 186H280.286V175.962H282.002V186ZM280.147 173.299C280.147 173.021 280.23 172.786 280.397 172.594C280.571 172.403 280.824 172.307 281.158 172.307C281.492 172.307 281.746 172.403 281.919 172.594C282.092 172.786 282.179 173.021 282.179 173.299C282.179 173.578 282.092 173.81 281.919 173.995C281.746 174.181 281.492 174.273 281.158 174.273C280.824 174.273 280.571 174.181 280.397 173.995C280.23 173.81 280.147 173.578 280.147 173.299ZM284.34 180.897C284.34 179.357 284.705 178.12 285.435 177.187C286.165 176.246 287.12 175.776 288.302 175.776C289.477 175.776 290.408 176.178 291.094 176.982V171.75H292.811V186H291.233L291.15 184.924C290.463 185.765 289.508 186.186 288.283 186.186C287.12 186.186 286.171 185.709 285.435 184.757C284.705 183.804 284.34 182.561 284.34 181.027V180.897ZM286.057 181.092C286.057 182.23 286.292 183.121 286.762 183.764C287.232 184.407 287.881 184.729 288.71 184.729C289.799 184.729 290.593 184.24 291.094 183.263V178.652C290.581 177.706 289.792 177.233 288.729 177.233C287.887 177.233 287.232 177.558 286.762 178.207C286.292 178.856 286.057 179.818 286.057 181.092ZM299.054 180.962H294.527V179.562H299.054V180.962ZM306.931 186C306.832 185.802 306.751 185.45 306.689 184.942C305.892 185.771 304.939 186.186 303.832 186.186C302.842 186.186 302.029 185.907 301.392 185.351C300.761 184.788 300.446 184.076 300.446 183.217C300.446 182.172 300.842 181.361 301.633 180.786C302.431 180.205 303.551 179.914 304.992 179.914H306.662V179.125C306.662 178.526 306.482 178.049 306.124 177.697C305.765 177.338 305.236 177.159 304.537 177.159C303.925 177.159 303.411 177.313 302.997 177.623C302.583 177.932 302.375 178.306 302.375 178.745H300.65C300.65 178.244 300.826 177.762 301.179 177.298C301.537 176.828 302.02 176.457 302.626 176.185C303.238 175.912 303.909 175.776 304.639 175.776C305.796 175.776 306.702 176.067 307.357 176.648C308.013 177.224 308.353 178.018 308.378 179.033V183.653C308.378 184.574 308.495 185.307 308.73 185.852V186H306.931ZM304.083 184.692C304.621 184.692 305.131 184.553 305.613 184.274C306.096 183.996 306.445 183.634 306.662 183.189V181.129H305.316C303.214 181.129 302.162 181.745 302.162 182.976C302.162 183.514 302.341 183.934 302.7 184.237C303.059 184.54 303.52 184.692 304.083 184.692ZM315.92 177.502C315.661 177.459 315.379 177.437 315.076 177.437C313.951 177.437 313.187 177.916 312.785 178.875V186H311.068V175.962H312.738L312.766 177.122C313.329 176.225 314.127 175.776 315.16 175.776C315.494 175.776 315.747 175.82 315.92 175.906V177.502ZM321.487 186.186C320.126 186.186 319.019 185.74 318.166 184.85C317.312 183.953 316.885 182.756 316.885 181.259V180.944C316.885 179.948 317.074 179.061 317.451 178.281C317.835 177.496 318.367 176.883 319.047 176.444C319.733 175.999 320.476 175.776 321.273 175.776C322.578 175.776 323.593 176.206 324.316 177.066C325.04 177.926 325.402 179.156 325.402 180.758V181.473H318.602C318.626 182.462 318.914 183.263 319.464 183.875C320.021 184.482 320.726 184.785 321.58 184.785C322.186 184.785 322.699 184.661 323.12 184.414C323.54 184.166 323.908 183.838 324.224 183.43L325.272 184.247C324.431 185.539 323.169 186.186 321.487 186.186ZM321.273 177.187C320.581 177.187 319.999 177.44 319.529 177.947C319.059 178.448 318.769 179.153 318.657 180.062H323.686V179.933C323.636 179.061 323.401 178.386 322.98 177.91C322.56 177.428 321.991 177.187 321.273 177.187ZM333.594 186C333.495 185.802 333.414 185.45 333.353 184.942C332.555 185.771 331.602 186.186 330.495 186.186C329.506 186.186 328.692 185.907 328.055 185.351C327.424 184.788 327.109 184.076 327.109 183.217C327.109 182.172 327.505 181.361 328.296 180.786C329.094 180.205 330.214 179.914 331.655 179.914H333.325V179.125C333.325 178.526 333.145 178.049 332.787 177.697C332.428 177.338 331.899 177.159 331.2 177.159C330.588 177.159 330.075 177.313 329.66 177.623C329.246 177.932 329.039 178.306 329.039 178.745H327.313C327.313 178.244 327.489 177.762 327.842 177.298C328.201 176.828 328.683 176.457 329.289 176.185C329.901 175.912 330.572 175.776 331.302 175.776C332.459 175.776 333.365 176.067 334.021 176.648C334.676 177.224 335.016 178.018 335.041 179.033V183.653C335.041 184.574 335.159 185.307 335.394 185.852V186H333.594ZM330.746 184.692C331.284 184.692 331.794 184.553 332.276 184.274C332.759 183.996 333.108 183.634 333.325 183.189V181.129H331.979C329.877 181.129 328.825 181.745 328.825 182.976C328.825 183.514 329.005 183.934 329.363 184.237C329.722 184.54 330.183 184.692 330.746 184.692ZM337.676 185.1C337.676 184.803 337.762 184.556 337.936 184.358C338.115 184.16 338.381 184.061 338.733 184.061C339.086 184.061 339.352 184.16 339.531 184.358C339.717 184.556 339.81 184.803 339.81 185.1C339.81 185.385 339.717 185.623 339.531 185.814C339.352 186.006 339.086 186.102 338.733 186.102C338.381 186.102 338.115 186.006 337.936 185.814C337.762 185.623 337.676 185.385 337.676 185.1ZM337.685 176.908C337.685 176.611 337.772 176.364 337.945 176.166C338.124 175.968 338.39 175.869 338.743 175.869C339.095 175.869 339.361 175.968 339.541 176.166C339.726 176.364 339.819 176.611 339.819 176.908C339.819 177.193 339.726 177.431 339.541 177.623C339.361 177.814 339.095 177.91 338.743 177.91C338.39 177.91 338.124 177.814 337.945 177.623C337.772 177.431 337.685 177.193 337.685 176.908ZM352.51 186H350.785V174.561L347.324 175.832V174.273L352.241 172.427H352.51V186ZM362.771 187.16H361.296L366.937 172.492H368.402L362.771 187.16ZM380.435 186H378.709V174.561L375.249 175.832V174.273L380.166 172.427H380.435V186ZM390.696 187.16H389.221L394.861 172.492H396.327L390.696 187.16ZM411.57 186H402.719V184.766L407.395 179.571C408.088 178.785 408.564 178.148 408.824 177.66C409.09 177.165 409.223 176.655 409.223 176.129C409.223 175.424 409.009 174.846 408.583 174.394C408.156 173.943 407.587 173.717 406.875 173.717C406.022 173.717 405.357 173.961 404.881 174.45C404.411 174.932 404.176 175.606 404.176 176.472H402.459C402.459 175.229 402.858 174.224 403.656 173.457C404.46 172.69 405.533 172.307 406.875 172.307C408.131 172.307 409.124 172.638 409.854 173.299C410.583 173.955 410.948 174.83 410.948 175.925C410.948 177.255 410.101 178.838 408.406 180.675L404.788 184.599H411.57V186ZM418.621 187.16H417.146L422.786 172.492H424.252L418.621 187.16ZM439.495 186H430.644V184.766L435.32 179.571C436.013 178.785 436.489 178.148 436.749 177.66C437.014 177.165 437.147 176.655 437.147 176.129C437.147 175.424 436.934 174.846 436.507 174.394C436.081 173.943 435.512 173.717 434.8 173.717C433.947 173.717 433.282 173.961 432.806 174.45C432.336 174.932 432.101 175.606 432.101 176.472H430.384C430.384 175.229 430.783 174.224 431.581 173.457C432.385 172.69 433.458 172.307 434.8 172.307C436.056 172.307 437.049 172.638 437.778 173.299C438.508 173.955 438.873 174.83 438.873 175.925C438.873 177.255 438.026 178.838 436.331 180.675L432.713 184.599H439.495V186ZM441.22 176.908C441.22 176.611 441.307 176.364 441.48 176.166C441.659 175.968 441.925 175.869 442.278 175.869C442.63 175.869 442.896 175.968 443.076 176.166C443.261 176.364 443.354 176.611 443.354 176.908C443.354 177.193 443.261 177.431 443.076 177.623C442.896 177.814 442.63 177.91 442.278 177.91C441.925 177.91 441.659 177.814 441.48 177.623C441.307 177.431 441.22 177.193 441.22 176.908ZM441.545 188.69L440.571 188.022C441.152 187.212 441.455 186.377 441.48 185.518V183.968H443.159V185.313C443.159 185.938 443.005 186.563 442.695 187.188C442.392 187.812 442.009 188.313 441.545 188.69ZM449.477 180.61C449.477 181.989 449.295 183.313 448.93 184.581C448.571 185.842 448.017 187.008 447.269 188.078C446.527 189.148 445.748 189.909 444.931 190.36L444.569 189.312C445.522 188.582 446.286 187.45 446.861 185.917C447.442 184.376 447.739 182.669 447.751 180.795V180.499C447.751 179.2 447.615 177.994 447.343 176.88C447.071 175.761 446.691 174.759 446.202 173.875C445.72 172.99 445.175 172.3 444.569 171.806L444.931 170.757C445.748 171.209 446.524 171.963 447.26 173.021C448.002 174.079 448.556 175.244 448.92 176.519C449.292 177.793 449.477 179.156 449.477 180.61Z" fill="#4643DA"/>
<path d="M247.522 263.536H244.349V269H242.559V255.492H247.03C248.552 255.492 249.721 255.839 250.537 256.531C251.36 257.224 251.771 258.232 251.771 259.556C251.771 260.397 251.542 261.13 251.084 261.754C250.633 262.379 250.002 262.846 249.192 263.155L252.365 268.889V269H250.454L247.522 263.536ZM244.349 262.079H247.086C247.97 262.079 248.672 261.85 249.192 261.393C249.718 260.935 249.98 260.323 249.98 259.556C249.98 258.721 249.73 258.081 249.229 257.635C248.734 257.19 248.017 256.964 247.077 256.958H244.349V262.079ZM258.172 269.186C256.812 269.186 255.705 268.74 254.851 267.85C253.998 266.953 253.571 265.756 253.571 264.259V263.944C253.571 262.948 253.759 262.061 254.137 261.281C254.52 260.496 255.052 259.883 255.732 259.444C256.419 258.999 257.161 258.776 257.959 258.776C259.264 258.776 260.278 259.206 261.002 260.066C261.726 260.926 262.087 262.156 262.087 263.758V264.473H255.287C255.312 265.462 255.599 266.263 256.15 266.875C256.707 267.482 257.412 267.785 258.265 267.785C258.871 267.785 259.385 267.661 259.805 267.414C260.226 267.166 260.594 266.838 260.909 266.43L261.958 267.247C261.116 268.539 259.855 269.186 258.172 269.186ZM257.959 260.187C257.266 260.187 256.685 260.44 256.215 260.947C255.745 261.448 255.454 262.153 255.343 263.062H260.371V262.933C260.322 262.061 260.087 261.386 259.666 260.91C259.245 260.428 258.676 260.187 257.959 260.187ZM272.562 264.092C272.562 265.62 272.212 266.851 271.513 267.785C270.814 268.719 269.868 269.186 268.674 269.186C267.456 269.186 266.497 268.799 265.798 268.026V272.859H264.082V258.962H265.65L265.733 260.075C266.432 259.209 267.403 258.776 268.646 258.776C269.853 258.776 270.805 259.231 271.504 260.14C272.209 261.049 272.562 262.314 272.562 263.935V264.092ZM270.845 263.897C270.845 262.766 270.604 261.872 270.122 261.216C269.639 260.561 268.977 260.233 268.136 260.233C267.097 260.233 266.318 260.694 265.798 261.615V266.412C266.312 267.327 267.097 267.785 268.155 267.785C268.977 267.785 269.63 267.46 270.112 266.811C270.601 266.155 270.845 265.184 270.845 263.897ZM276.616 269H274.899V254.75H276.616V269ZM281.236 269H279.52V258.962H281.236V269ZM279.38 256.299C279.38 256.021 279.464 255.786 279.631 255.594C279.804 255.403 280.058 255.307 280.392 255.307C280.726 255.307 280.979 255.403 281.152 255.594C281.326 255.786 281.412 256.021 281.412 256.299C281.412 256.578 281.326 256.81 281.152 256.995C280.979 257.181 280.726 257.273 280.392 257.273C280.058 257.273 279.804 257.181 279.631 256.995C279.464 256.81 279.38 256.578 279.38 256.299ZM288.018 267.785C288.63 267.785 289.165 267.599 289.623 267.228C290.08 266.857 290.334 266.393 290.383 265.836H292.007C291.976 266.412 291.778 266.959 291.413 267.479C291.048 267.998 290.56 268.412 289.947 268.722C289.341 269.031 288.698 269.186 288.018 269.186C286.651 269.186 285.562 268.731 284.752 267.822C283.948 266.906 283.546 265.657 283.546 264.074V263.786C283.546 262.809 283.725 261.94 284.084 261.179C284.443 260.418 284.956 259.828 285.624 259.407C286.298 258.987 287.093 258.776 288.008 258.776C289.134 258.776 290.068 259.113 290.81 259.788C291.558 260.462 291.957 261.337 292.007 262.413H290.383C290.334 261.764 290.086 261.232 289.641 260.817C289.202 260.397 288.658 260.187 288.008 260.187C287.136 260.187 286.459 260.502 285.977 261.133C285.5 261.757 285.262 262.664 285.262 263.851V264.176C285.262 265.332 285.5 266.223 285.977 266.848C286.453 267.472 287.133 267.785 288.018 267.785ZM300.134 269C300.035 268.802 299.954 268.45 299.893 267.942C299.095 268.771 298.142 269.186 297.035 269.186C296.046 269.186 295.232 268.907 294.595 268.351C293.964 267.788 293.649 267.076 293.649 266.217C293.649 265.172 294.045 264.361 294.836 263.786C295.634 263.205 296.754 262.914 298.195 262.914H299.865V262.125C299.865 261.526 299.685 261.049 299.327 260.697C298.968 260.338 298.439 260.159 297.74 260.159C297.128 260.159 296.615 260.313 296.2 260.623C295.786 260.932 295.579 261.306 295.579 261.745H293.853C293.853 261.244 294.029 260.762 294.382 260.298C294.741 259.828 295.223 259.457 295.829 259.185C296.441 258.912 297.112 258.776 297.842 258.776C298.999 258.776 299.905 259.067 300.561 259.648C301.216 260.224 301.556 261.018 301.581 262.033V266.653C301.581 267.574 301.699 268.307 301.934 268.852V269H300.134ZM297.286 267.692C297.824 267.692 298.334 267.553 298.816 267.274C299.299 266.996 299.648 266.634 299.865 266.189V264.129H298.52C296.417 264.129 295.365 264.745 295.365 265.976C295.365 266.514 295.545 266.934 295.903 267.237C296.262 267.54 296.723 267.692 297.286 267.692ZM306.6 256.531V258.962H308.474V260.289H306.6V266.514C306.6 266.916 306.684 267.219 306.851 267.423C307.018 267.621 307.302 267.72 307.704 267.72C307.902 267.72 308.174 267.683 308.521 267.608V269C308.069 269.124 307.63 269.186 307.203 269.186C306.436 269.186 305.858 268.954 305.468 268.49C305.079 268.026 304.884 267.367 304.884 266.514V260.289H303.056V258.962H304.884V256.531H306.6ZM314.653 269.186C313.292 269.186 312.185 268.74 311.332 267.85C310.478 266.953 310.051 265.756 310.051 264.259V263.944C310.051 262.948 310.24 262.061 310.617 261.281C311.001 260.496 311.533 259.883 312.213 259.444C312.899 258.999 313.642 258.776 314.439 258.776C315.744 258.776 316.759 259.206 317.482 260.066C318.206 260.926 318.568 262.156 318.568 263.758V264.473H311.768C311.792 265.462 312.08 266.263 312.63 266.875C313.187 267.482 313.892 267.785 314.746 267.785C315.352 267.785 315.865 267.661 316.286 267.414C316.706 267.166 317.074 266.838 317.39 266.43L318.438 267.247C317.597 268.539 316.335 269.186 314.653 269.186ZM314.439 260.187C313.747 260.187 313.165 260.44 312.695 260.947C312.225 261.448 311.935 262.153 311.823 263.062H316.852V262.933C316.802 262.061 316.567 261.386 316.146 260.91C315.726 260.428 315.157 260.187 314.439 260.187ZM320.145 263.897C320.145 262.357 320.51 261.12 321.24 260.187C321.97 259.246 322.925 258.776 324.106 258.776C325.282 258.776 326.212 259.178 326.899 259.982V254.75H328.615V269H327.038L326.955 267.924C326.268 268.765 325.312 269.186 324.088 269.186C322.925 269.186 321.976 268.709 321.24 267.757C320.51 266.804 320.145 265.561 320.145 264.027V263.897ZM321.861 264.092C321.861 265.23 322.096 266.121 322.566 266.764C323.036 267.407 323.686 267.729 324.515 267.729C325.603 267.729 326.398 267.24 326.899 266.263V261.652C326.386 260.706 325.597 260.233 324.533 260.233C323.692 260.233 323.036 260.558 322.566 261.207C322.096 261.856 321.861 262.818 321.861 264.092ZM338.329 256.531V258.962H340.203V260.289H338.329V266.514C338.329 266.916 338.412 267.219 338.579 267.423C338.746 267.621 339.031 267.72 339.433 267.72C339.631 267.72 339.903 267.683 340.249 267.608V269C339.798 269.124 339.358 269.186 338.932 269.186C338.165 269.186 337.586 268.954 337.197 268.49C336.807 268.026 336.612 267.367 336.612 266.514V260.289H334.785V258.962H336.612V256.531H338.329ZM346.381 269.186C345.021 269.186 343.914 268.74 343.06 267.85C342.207 266.953 341.78 265.756 341.78 264.259V263.944C341.78 262.948 341.968 262.061 342.346 261.281C342.729 260.496 343.261 259.883 343.941 259.444C344.628 258.999 345.37 258.776 346.168 258.776C347.473 258.776 348.487 259.206 349.211 260.066C349.935 260.926 350.296 262.156 350.296 263.758V264.473H343.496C343.521 265.462 343.808 266.263 344.359 266.875C344.916 267.482 345.621 267.785 346.474 267.785C347.08 267.785 347.594 267.661 348.014 267.414C348.435 267.166 348.803 266.838 349.118 266.43L350.167 267.247C349.325 268.539 348.064 269.186 346.381 269.186ZM346.168 260.187C345.475 260.187 344.894 260.44 344.424 260.947C343.954 261.448 343.663 262.153 343.552 263.062H348.58V262.933C348.531 262.061 348.296 261.386 347.875 260.91C347.454 260.428 346.885 260.187 346.168 260.187ZM355.659 262.626L357.885 258.962H359.889L356.605 263.925L359.991 269H358.006L355.687 265.243L353.367 269H351.373L354.759 263.925L351.475 258.962H353.46L355.659 262.626ZM364.045 256.531V258.962H365.919V260.289H364.045V266.514C364.045 266.916 364.129 267.219 364.296 267.423C364.463 267.621 364.747 267.72 365.149 267.72C365.347 267.72 365.619 267.683 365.966 267.608V269C365.514 269.124 365.075 269.186 364.648 269.186C363.882 269.186 363.303 268.954 362.914 268.49C362.524 268.026 362.329 267.367 362.329 266.514V260.289H360.501V258.962H362.329V256.531H364.045ZM376.811 269.186C375.45 269.186 374.343 268.74 373.49 267.85C372.636 266.953 372.209 265.756 372.209 264.259V263.944C372.209 262.948 372.398 262.061 372.775 261.281C373.159 260.496 373.691 259.883 374.371 259.444C375.058 258.999 375.8 258.776 376.598 258.776C377.903 258.776 378.917 259.206 379.641 260.066C380.364 260.926 380.726 262.156 380.726 263.758V264.473H373.926C373.951 265.462 374.238 266.263 374.789 266.875C375.345 267.482 376.05 267.785 376.904 267.785C377.51 267.785 378.023 267.661 378.444 267.414C378.864 267.166 379.232 266.838 379.548 266.43L380.596 267.247C379.755 268.539 378.493 269.186 376.811 269.186ZM376.598 260.187C375.905 260.187 375.324 260.44 374.854 260.947C374.383 261.448 374.093 262.153 373.981 263.062H379.01V262.933C378.96 262.061 378.725 261.386 378.305 260.91C377.884 260.428 377.315 260.187 376.598 260.187ZM384.585 269H382.869V254.75H384.585V269ZM391.506 269.186C390.146 269.186 389.039 268.74 388.185 267.85C387.332 266.953 386.905 265.756 386.905 264.259V263.944C386.905 262.948 387.093 262.061 387.471 261.281C387.854 260.496 388.386 259.883 389.066 259.444C389.753 258.999 390.495 258.776 391.293 258.776C392.598 258.776 393.612 259.206 394.336 260.066C395.06 260.926 395.421 262.156 395.421 263.758V264.473H388.621C388.646 265.462 388.933 266.263 389.484 266.875C390.041 267.482 390.746 267.785 391.599 267.785C392.205 267.785 392.719 267.661 393.139 267.414C393.56 267.166 393.928 266.838 394.243 266.43L395.292 267.247C394.45 268.539 393.189 269.186 391.506 269.186ZM391.293 260.187C390.6 260.187 390.019 260.44 389.549 260.947C389.079 261.448 388.788 262.153 388.677 263.062H393.705V262.933C393.656 262.061 393.421 261.386 393 260.91C392.579 260.428 392.01 260.187 391.293 260.187ZM399.03 258.962L399.077 260.075C399.813 259.209 400.805 258.776 402.055 258.776C403.459 258.776 404.414 259.314 404.921 260.391C405.255 259.908 405.688 259.519 406.22 259.222C406.758 258.925 407.392 258.776 408.122 258.776C410.324 258.776 411.443 259.942 411.48 262.274V269H409.764V262.376C409.764 261.659 409.6 261.124 409.272 260.771C408.945 260.412 408.394 260.233 407.621 260.233C406.984 260.233 406.455 260.425 406.035 260.808C405.614 261.185 405.37 261.696 405.302 262.339V269H403.576V262.422C403.576 260.963 402.862 260.233 401.433 260.233C400.307 260.233 399.537 260.712 399.123 261.671V269H397.407V258.962H399.03ZM418.244 269.186C416.883 269.186 415.776 268.74 414.922 267.85C414.069 266.953 413.642 265.756 413.642 264.259V263.944C413.642 262.948 413.831 262.061 414.208 261.281C414.591 260.496 415.123 259.883 415.804 259.444C416.49 258.999 417.232 258.776 418.03 258.776C419.335 258.776 420.35 259.206 421.073 260.066C421.797 260.926 422.159 262.156 422.159 263.758V264.473H415.358C415.383 265.462 415.671 266.263 416.221 266.875C416.778 267.482 417.483 267.785 418.336 267.785C418.943 267.785 419.456 267.661 419.876 267.414C420.297 267.166 420.665 266.838 420.98 266.43L422.029 267.247C421.188 268.539 419.926 269.186 418.244 269.186ZM418.03 260.187C417.338 260.187 416.756 260.44 416.286 260.947C415.816 261.448 415.525 262.153 415.414 263.062H420.442V262.933C420.393 262.061 420.158 261.386 419.737 260.91C419.317 260.428 418.748 260.187 418.03 260.187ZM425.777 258.962L425.833 260.224C426.599 259.259 427.601 258.776 428.838 258.776C430.96 258.776 432.03 259.973 432.048 262.367V269H430.332V262.357C430.326 261.634 430.159 261.099 429.831 260.752C429.509 260.406 429.005 260.233 428.319 260.233C427.762 260.233 427.274 260.381 426.853 260.678C426.432 260.975 426.105 261.365 425.87 261.847V269H424.153V258.962H425.777ZM436.965 256.531V258.962H438.839V260.289H436.965V266.514C436.965 266.916 437.049 267.219 437.216 267.423C437.383 267.621 437.667 267.72 438.069 267.72C438.267 267.72 438.539 267.683 438.886 267.608V269C438.434 269.124 437.995 269.186 437.568 269.186C436.801 269.186 436.223 268.954 435.833 268.49C435.444 268.026 435.249 267.367 435.249 266.514V260.289H433.421V258.962H435.249V256.531H436.965ZM243.143 291V282.289H241.557V280.962H243.143V279.932C243.143 278.856 243.431 278.024 244.006 277.437C244.581 276.849 245.394 276.555 246.446 276.555C246.842 276.555 247.234 276.608 247.624 276.713L247.531 278.104C247.241 278.049 246.931 278.021 246.604 278.021C246.047 278.021 245.617 278.185 245.314 278.513C245.011 278.834 244.859 279.298 244.859 279.904V280.962H247.002V282.289H244.859V291H243.143ZM248.45 285.888C248.45 284.905 248.641 284.02 249.025 283.235C249.415 282.449 249.953 281.843 250.639 281.417C251.332 280.99 252.12 280.776 253.005 280.776C254.372 280.776 255.476 281.25 256.317 282.196C257.164 283.142 257.588 284.401 257.588 285.972V286.092C257.588 287.069 257.399 287.948 257.022 288.727C256.651 289.5 256.116 290.103 255.417 290.536C254.724 290.969 253.926 291.186 253.023 291.186C251.663 291.186 250.559 290.712 249.711 289.766C248.87 288.82 248.45 287.567 248.45 286.009V285.888ZM250.175 286.092C250.175 287.206 250.432 288.099 250.945 288.773C251.465 289.448 252.158 289.785 253.023 289.785C253.896 289.785 254.588 289.444 255.102 288.764C255.615 288.078 255.872 287.119 255.872 285.888C255.872 284.787 255.609 283.897 255.083 283.216C254.563 282.53 253.871 282.187 253.005 282.187C252.158 282.187 251.474 282.524 250.955 283.198C250.435 283.872 250.175 284.837 250.175 286.092ZM264.592 282.502C264.333 282.459 264.051 282.437 263.748 282.437C262.622 282.437 261.859 282.916 261.457 283.875V291H259.74V280.962H261.41L261.438 282.122C262.001 281.225 262.799 280.776 263.832 280.776C264.166 280.776 264.419 280.82 264.592 280.906V282.502ZM276.736 288.337C276.736 287.874 276.56 287.515 276.208 287.261C275.861 287.001 275.252 286.779 274.38 286.593C273.514 286.408 272.824 286.185 272.311 285.925C271.804 285.666 271.427 285.356 271.179 284.998C270.938 284.639 270.817 284.212 270.817 283.717C270.817 282.895 271.164 282.199 271.856 281.63C272.555 281.061 273.446 280.776 274.528 280.776C275.666 280.776 276.588 281.07 277.293 281.658C278.004 282.245 278.36 282.997 278.36 283.912H276.634C276.634 283.442 276.433 283.037 276.031 282.697C275.635 282.357 275.134 282.187 274.528 282.187C273.904 282.187 273.415 282.323 273.062 282.595C272.71 282.867 272.534 283.222 272.534 283.662C272.534 284.076 272.698 284.388 273.025 284.599C273.353 284.809 273.944 285.01 274.797 285.202C275.657 285.393 276.353 285.622 276.885 285.888C277.417 286.154 277.809 286.476 278.063 286.853C278.323 287.224 278.453 287.679 278.453 288.217C278.453 289.114 278.094 289.834 277.376 290.378C276.659 290.917 275.728 291.186 274.584 291.186C273.78 291.186 273.069 291.043 272.45 290.759C271.832 290.474 271.346 290.078 270.994 289.571C270.647 289.058 270.474 288.504 270.474 287.911H272.19C272.221 288.486 272.45 288.944 272.877 289.284C273.31 289.618 273.879 289.785 274.584 289.785C275.233 289.785 275.753 289.655 276.143 289.395C276.538 289.129 276.736 288.777 276.736 288.337ZM282.553 291H280.837V280.962H282.553V291ZM280.698 278.299C280.698 278.021 280.781 277.786 280.948 277.594C281.121 277.403 281.375 277.307 281.709 277.307C282.043 277.307 282.297 277.403 282.47 277.594C282.643 277.786 282.729 278.021 282.729 278.299C282.729 278.578 282.643 278.81 282.47 278.995C282.297 279.181 282.043 279.273 281.709 279.273C281.375 279.273 281.121 279.181 280.948 278.995C280.781 278.81 280.698 278.578 280.698 278.299ZM286.923 289.599H292.795V291H284.826V289.738L290.365 282.381H284.91V280.962H292.517V282.177L286.923 289.599ZM296.599 291H294.883V280.962H296.599V291ZM294.744 278.299C294.744 278.021 294.827 277.786 294.994 277.594C295.167 277.403 295.421 277.307 295.755 277.307C296.089 277.307 296.342 277.403 296.516 277.594C296.689 277.786 296.775 278.021 296.775 278.299C296.775 278.578 296.689 278.81 296.516 278.995C296.342 279.181 296.089 279.273 295.755 279.273C295.421 279.273 295.167 279.181 294.994 278.995C294.827 278.81 294.744 278.578 294.744 278.299ZM300.978 280.962L301.034 282.224C301.801 281.259 302.803 280.776 304.04 280.776C306.161 280.776 307.231 281.973 307.25 284.367V291H305.533V284.357C305.527 283.634 305.36 283.099 305.032 282.752C304.711 282.406 304.207 282.233 303.52 282.233C302.963 282.233 302.475 282.381 302.054 282.678C301.634 282.975 301.306 283.365 301.071 283.847V291H299.354V280.962H300.978ZM309.43 285.897C309.43 284.333 309.792 283.09 310.515 282.168C311.239 281.24 312.197 280.776 313.391 280.776C314.616 280.776 315.571 281.209 316.258 282.075L316.341 280.962H317.909V290.759C317.909 292.058 317.523 293.081 316.75 293.83C315.983 294.578 314.95 294.952 313.651 294.952C312.927 294.952 312.219 294.798 311.526 294.488C310.834 294.179 310.305 293.755 309.94 293.217L310.831 292.188C311.567 293.097 312.466 293.551 313.53 293.551C314.365 293.551 315.015 293.316 315.479 292.846C315.949 292.376 316.184 291.714 316.184 290.861V289.998C315.497 290.79 314.56 291.186 313.373 291.186C312.197 291.186 311.245 290.712 310.515 289.766C309.792 288.82 309.43 287.53 309.43 285.897ZM311.155 286.092C311.155 287.224 311.387 288.115 311.851 288.764C312.315 289.407 312.964 289.729 313.799 289.729C314.882 289.729 315.676 289.237 316.184 288.254V283.671C315.658 282.712 314.869 282.233 313.818 282.233C312.983 282.233 312.33 282.558 311.86 283.207C311.39 283.856 311.155 284.818 311.155 286.092ZM320.544 290.1C320.544 289.803 320.631 289.556 320.804 289.358C320.983 289.16 321.249 289.061 321.602 289.061C321.954 289.061 322.22 289.16 322.399 289.358C322.585 289.556 322.678 289.803 322.678 290.1C322.678 290.385 322.585 290.623 322.399 290.814C322.22 291.006 321.954 291.102 321.602 291.102C321.249 291.102 320.983 291.006 320.804 290.814C320.631 290.623 320.544 290.385 320.544 290.1ZM334.877 285.517C334.877 284.119 335.063 282.777 335.434 281.491C335.811 280.204 336.371 279.035 337.113 277.984C337.855 276.932 338.625 276.19 339.423 275.757L339.776 276.889C338.873 277.582 338.131 278.639 337.549 280.062C336.974 281.485 336.659 283.077 336.603 284.84L336.594 285.628C336.594 288.016 337.03 290.088 337.902 291.844C338.428 292.896 339.052 293.718 339.776 294.312L339.423 295.36C338.601 294.903 337.815 294.136 337.067 293.06C335.607 290.957 334.877 288.443 334.877 285.517ZM341.028 285.897C341.028 284.333 341.39 283.09 342.114 282.168C342.837 281.24 343.796 280.776 344.99 280.776C346.214 280.776 347.17 281.209 347.856 282.075L347.94 280.962H349.508V290.759C349.508 292.058 349.121 293.081 348.348 293.83C347.581 294.578 346.548 294.952 345.25 294.952C344.526 294.952 343.818 294.798 343.125 294.488C342.432 294.179 341.903 293.755 341.539 293.217L342.429 292.188C343.165 293.097 344.065 293.551 345.129 293.551C345.964 293.551 346.613 293.316 347.077 292.846C347.547 292.376 347.782 291.714 347.782 290.861V289.998C347.096 290.79 346.159 291.186 344.971 291.186C343.796 291.186 342.844 290.712 342.114 289.766C341.39 288.82 341.028 287.53 341.028 285.897ZM342.754 286.092C342.754 287.224 342.986 288.115 343.45 288.764C343.914 289.407 344.563 289.729 345.398 289.729C346.48 289.729 347.275 289.237 347.782 288.254V283.671C347.257 282.712 346.468 282.233 345.417 282.233C344.582 282.233 343.929 282.558 343.459 283.207C342.989 283.856 342.754 284.818 342.754 286.092ZM356.958 282.502C356.698 282.459 356.416 282.437 356.113 282.437C354.988 282.437 354.224 282.916 353.822 283.875V291H352.105V280.962H353.775L353.803 282.122C354.366 281.225 355.164 280.776 356.197 280.776C356.531 280.776 356.784 280.82 356.958 280.906V282.502ZM360.409 291H358.692V280.962H360.409V291ZM358.553 278.299C358.553 278.021 358.637 277.786 358.804 277.594C358.977 277.403 359.23 277.307 359.564 277.307C359.898 277.307 360.152 277.403 360.325 277.594C360.498 277.786 360.585 278.021 360.585 278.299C360.585 278.578 360.498 278.81 360.325 278.995C360.152 279.181 359.898 279.273 359.564 279.273C359.23 279.273 358.977 279.181 358.804 278.995C358.637 278.81 358.553 278.578 358.553 278.299ZM362.747 285.897C362.747 284.357 363.111 283.12 363.841 282.187C364.571 281.246 365.527 280.776 366.708 280.776C367.883 280.776 368.814 281.178 369.5 281.982V276.75H371.217V291H369.64L369.556 289.924C368.87 290.765 367.914 291.186 366.689 291.186C365.527 291.186 364.577 290.709 363.841 289.757C363.111 288.804 362.747 287.561 362.747 286.027V285.897ZM364.463 286.092C364.463 287.23 364.698 288.121 365.168 288.764C365.638 289.407 366.287 289.729 367.116 289.729C368.205 289.729 369 289.24 369.5 288.263V283.652C368.987 282.706 368.199 282.233 367.135 282.233C366.294 282.233 365.638 282.558 365.168 283.207C364.698 283.856 364.463 284.818 364.463 286.092ZM377.46 285.962H372.933V284.562H377.46V285.962ZM385.337 291C385.238 290.802 385.158 290.45 385.096 289.942C384.298 290.771 383.345 291.186 382.238 291.186C381.249 291.186 380.435 290.907 379.798 290.351C379.167 289.788 378.852 289.076 378.852 288.217C378.852 287.172 379.248 286.361 380.04 285.786C380.837 285.205 381.957 284.914 383.398 284.914H385.068V284.125C385.068 283.526 384.889 283.049 384.53 282.697C384.171 282.338 383.642 282.159 382.943 282.159C382.331 282.159 381.818 282.313 381.403 282.623C380.989 282.932 380.782 283.306 380.782 283.745H379.056C379.056 283.244 379.232 282.762 379.585 282.298C379.944 281.828 380.426 281.457 381.032 281.185C381.645 280.912 382.316 280.776 383.045 280.776C384.202 280.776 385.108 281.067 385.764 281.648C386.419 282.224 386.759 283.018 386.784 284.033V288.653C386.784 289.574 386.902 290.307 387.137 290.852V291H385.337ZM382.489 289.692C383.027 289.692 383.537 289.553 384.02 289.274C384.502 288.996 384.851 288.634 385.068 288.189V286.129H383.723C381.62 286.129 380.568 286.745 380.568 287.976C380.568 288.514 380.748 288.934 381.106 289.237C381.465 289.54 381.926 289.692 382.489 289.692ZM394.327 282.502C394.067 282.459 393.785 282.437 393.482 282.437C392.357 282.437 391.593 282.916 391.191 283.875V291H389.475V280.962H391.145L391.172 282.122C391.735 281.225 392.533 280.776 393.566 280.776C393.9 280.776 394.153 280.82 394.327 280.906V282.502ZM399.893 291.186C398.532 291.186 397.425 290.74 396.572 289.85C395.718 288.953 395.292 287.756 395.292 286.259V285.944C395.292 284.948 395.48 284.061 395.857 283.281C396.241 282.496 396.773 281.883 397.453 281.444C398.14 280.999 398.882 280.776 399.68 280.776C400.985 280.776 401.999 281.206 402.723 282.066C403.446 282.926 403.808 284.156 403.808 285.758V286.473H397.008C397.033 287.462 397.32 288.263 397.871 288.875C398.427 289.482 399.132 289.785 399.986 289.785C400.592 289.785 401.105 289.661 401.526 289.414C401.946 289.166 402.314 288.838 402.63 288.43L403.678 289.247C402.837 290.539 401.575 291.186 399.893 291.186ZM399.68 282.187C398.987 282.187 398.406 282.44 397.936 282.947C397.465 283.448 397.175 284.153 397.063 285.062H402.092V284.933C402.042 284.061 401.807 283.386 401.387 282.91C400.966 282.428 400.397 282.187 399.68 282.187ZM412 291C411.901 290.802 411.821 290.45 411.759 289.942C410.961 290.771 410.008 291.186 408.901 291.186C407.912 291.186 407.098 290.907 406.461 290.351C405.831 289.788 405.515 289.076 405.515 288.217C405.515 287.172 405.911 286.361 406.703 285.786C407.5 285.205 408.62 284.914 410.061 284.914H411.731V284.125C411.731 283.526 411.552 283.049 411.193 282.697C410.834 282.338 410.305 282.159 409.606 282.159C408.994 282.159 408.481 282.313 408.066 282.623C407.652 282.932 407.445 283.306 407.445 283.745H405.719C405.719 283.244 405.896 282.762 406.248 282.298C406.607 281.828 407.089 281.457 407.695 281.185C408.308 280.912 408.979 280.776 409.708 280.776C410.865 280.776 411.771 281.067 412.427 281.648C413.082 282.224 413.423 283.018 413.447 284.033V288.653C413.447 289.574 413.565 290.307 413.8 290.852V291H412ZM409.152 289.692C409.69 289.692 410.2 289.553 410.683 289.274C411.165 288.996 411.514 288.634 411.731 288.189V286.129H410.386C408.283 286.129 407.231 286.745 407.231 287.976C407.231 288.514 407.411 288.934 407.77 289.237C408.128 289.54 408.589 289.692 409.152 289.692ZM416.082 290.1C416.082 289.803 416.169 289.556 416.342 289.358C416.521 289.16 416.787 289.061 417.14 289.061C417.492 289.061 417.758 289.16 417.938 289.358C418.123 289.556 418.216 289.803 418.216 290.1C418.216 290.385 418.123 290.623 417.938 290.814C417.758 291.006 417.492 291.102 417.14 291.102C416.787 291.102 416.521 291.006 416.342 290.814C416.169 290.623 416.082 290.385 416.082 290.1ZM416.091 281.908C416.091 281.611 416.178 281.364 416.351 281.166C416.53 280.968 416.796 280.869 417.149 280.869C417.501 280.869 417.767 280.968 417.947 281.166C418.132 281.364 418.225 281.611 418.225 281.908C418.225 282.193 418.132 282.431 417.947 282.623C417.767 282.814 417.501 282.91 417.149 282.91C416.796 282.91 416.53 282.814 416.351 282.623C416.178 282.431 416.091 282.193 416.091 281.908ZM430.917 291H429.191V279.561L425.73 280.832V279.273L430.647 277.427H430.917V291ZM441.177 292.16H439.702L445.343 277.492H446.809L441.177 292.16ZM458.841 291H457.116V279.561L453.655 280.832V279.273L458.572 277.427H458.841V291ZM469.102 292.16H467.627L473.268 277.492H474.733L469.102 292.16ZM489.976 291H481.125V289.766L485.801 284.571C486.494 283.785 486.97 283.148 487.23 282.66C487.496 282.165 487.629 281.655 487.629 281.129C487.629 280.424 487.416 279.846 486.989 279.394C486.562 278.943 485.993 278.717 485.282 278.717C484.428 278.717 483.763 278.961 483.287 279.45C482.817 279.932 482.582 280.606 482.582 281.472H480.866C480.866 280.229 481.265 279.224 482.062 278.457C482.867 277.69 483.94 277.307 485.282 277.307C486.537 277.307 487.53 277.638 488.26 278.299C488.99 278.955 489.354 279.83 489.354 280.925C489.354 282.255 488.507 283.838 486.812 285.675L483.194 289.599H489.976V291ZM497.027 292.16H495.552L501.192 277.492H502.658L497.027 292.16ZM517.901 291H509.05V289.766L513.726 284.571C514.419 283.785 514.895 283.148 515.155 282.66C515.421 282.165 515.554 281.655 515.554 281.129C515.554 280.424 515.34 279.846 514.914 279.394C514.487 278.943 513.918 278.717 513.207 278.717C512.353 278.717 511.688 278.961 511.212 279.45C510.742 279.932 510.507 280.606 510.507 281.472H508.791C508.791 280.229 509.189 279.224 509.987 278.457C510.791 277.69 511.864 277.307 513.207 277.307C514.462 277.307 515.455 277.638 516.185 278.299C516.914 278.955 517.279 279.83 517.279 280.925C517.279 282.255 516.432 283.838 514.737 285.675L511.119 289.599H517.901V291ZM519.626 281.908C519.626 281.611 519.713 281.364 519.886 281.166C520.066 280.968 520.332 280.869 520.684 280.869C521.037 280.869 521.303 280.968 521.482 281.166C521.667 281.364 521.76 281.611 521.76 281.908C521.76 282.193 521.667 282.431 521.482 282.623C521.303 282.814 521.037 282.91 520.684 282.91C520.332 282.91 520.066 282.814 519.886 282.623C519.713 282.431 519.626 282.193 519.626 281.908ZM519.951 293.69L518.977 293.022C519.558 292.212 519.861 291.377 519.886 290.518V288.968H521.565V290.313C521.565 290.938 521.411 291.563 521.102 292.188C520.799 292.812 520.415 293.313 519.951 293.69ZM527.883 285.61C527.883 286.989 527.701 288.313 527.336 289.581C526.977 290.842 526.424 292.008 525.675 293.078C524.933 294.148 524.154 294.909 523.337 295.36L522.976 294.312C523.928 293.582 524.692 292.45 525.267 290.917C525.848 289.376 526.145 287.669 526.158 285.795V285.499C526.158 284.2 526.022 282.994 525.75 281.88C525.477 280.761 525.097 279.759 524.608 278.875C524.126 277.99 523.582 277.3 522.976 276.806L523.337 275.757C524.154 276.209 524.93 276.963 525.666 278.021C526.408 279.079 526.962 280.244 527.327 281.519C527.698 282.793 527.883 284.156 527.883 285.61Z" fill="#BE226D"/>
</svg>
